<svg xmlns="http://www.w3.org/2000/svg" xmlns:xlink="http://www.w3.org/1999/xlink" width="2000" zoomAndPan="magnify" viewBox="0 0 375 374.999991" height="500" preserveAspectRatio="xMidYMid meet" version="1.0"><defs><g/><clipPath id="d7737b0961"><path d="M 89.523438 167.753906 L 292.773438 167.753906 L 292.773438 193.253906 L 89.523438 193.253906 Z M 89.523438 167.753906 " clip-rule="nonzero"/></clipPath></defs><g fill="#000000" fill-opacity="1"><g transform="translate(113.041177, 226.369555)"><g><path d="M 2.609375 -15.226562 C 2.609375 -6.175781 8.351562 1.738281 18.445312 1.738281 C 35.757812 1.738281 45.9375 -13.570312 45.9375 -34.714844 C 45.9375 -38.890625 45.761719 -42.367188 45.414062 -45.152344 L 56.203125 -16.703125 C 59.507812 -7.917969 59.941406 -0.871094 47.675781 -0.871094 L 47.675781 0 L 76.210938 0 L 76.210938 -0.871094 C 70.90625 -0.871094 68.121094 -5.65625 64.292969 -15.226562 L 36.453125 -88.738281 L 35.582031 -88.738281 C 30.101562 -74.296875 26.882812 -65.683594 21.574219 -51.679688 C 20.707031 -49.414062 21.140625 -47.066406 23.578125 -47.066406 C 28.535156 -47.066406 31.144531 -56.203125 35.320312 -56.203125 C 36.453125 -56.203125 37.410156 -55.507812 37.410156 -53.851562 C 37.410156 -44.804688 2.609375 -36.628906 2.609375 -15.226562 Z M 10.003906 -16.878906 C 10.003906 -38.367188 38.367188 -42.019531 38.367188 -53.679688 C 38.367188 -55.941406 37.148438 -57.070312 35.496094 -57.070312 C 30.886719 -57.070312 27.664062 -47.9375 23.664062 -47.9375 C 22.273438 -47.9375 21.574219 -48.980469 22.707031 -52.027344 L 32.710938 -78.648438 L 43.238281 -50.894531 C 44.804688 -45.761719 45.066406 -40.976562 45.066406 -34.539062 C 45.066406 -20.269531 38.191406 -2.4375 23.664062 -2.4375 C 15.136719 -2.4375 10.003906 -8.699219 10.003906 -16.878906 Z M 10.003906 -16.878906 "/></g></g></g><g fill="#000000" fill-opacity="1"><g transform="translate(189.253136, 226.369555)"><g><path d="M 5.21875 -43.5 C 5.21875 -17.398438 22.273438 1.738281 43.933594 1.738281 C 56.375 1.738281 66.730469 -4.523438 73.339844 -15.484375 L 73.339844 -28.015625 C 73.339844 -41.933594 60.898438 -43.5 48.980469 -43.5 C 38.019531 -43.5 27.40625 -42.109375 27.40625 -47.9375 C 27.40625 -52.027344 32.363281 -53.851562 37.757812 -53.851562 C 46.371094 -53.851562 58.117188 -45.5 68.554688 -45.5 C 73.949219 -45.5 78.734375 -48.546875 77.34375 -54.027344 C 77.34375 -54.027344 77.082031 -51.417969 70.992188 -51.417969 C 59.769531 -51.417969 52.636719 -59.335938 39.671875 -59.335938 C 34.453125 -59.335938 26.449219 -55.765625 26.449219 -48.371094 C 26.449219 -43.238281 31.40625 -42.457031 37.757812 -42.457031 C 49.414062 -42.457031 65.859375 -44.980469 65.859375 -28.015625 L 65.859375 -15.746094 C 65.859375 -12.613281 59.246094 0.695312 43.933594 0.695312 C 27.144531 0.695312 13.050781 -18.097656 13.050781 -43.5 C 13.050781 -68.902344 25.925781 -87.695312 43.933594 -87.695312 C 62.554688 -87.695312 67.859375 -73.078125 67.859375 -73.078125 L 68.730469 -73.078125 L 68.730469 -84.738281 C 62.03125 -87 54.636719 -88.738281 43.933594 -88.738281 C 22.273438 -88.738281 5.21875 -69.601562 5.21875 -43.5 Z M 5.21875 -43.5 "/></g></g></g><g clip-path="url(#d7737b0961)"><path fill="#f1f0f0" d="M 89.5625 167.753906 L 292.730469 167.753906 L 292.730469 193.253906 L 89.5625 193.253906 L 89.5625 167.753906 " fill-opacity="1" fill-rule="nonzero"/></g><g fill="#000000" fill-opacity="1"><g transform="translate(79.146062, 185.529194)"><g><path d="M 8.03125 -2.71875 L 2.359375 -2.71875 L 1.140625 0 L 0.03125 0 L 4.671875 -10.15625 L 5.734375 -10.15625 L 10.375 0 L 9.25 0 Z M 7.640625 -3.578125 L 5.203125 -9.046875 L 2.765625 -3.578125 Z M 7.640625 -3.578125 "/></g></g></g><g fill="#000000" fill-opacity="1"><g transform="translate(92.299477, 185.529194)"><g><path d="M 1.65625 -10.15625 L 2.734375 -10.15625 L 2.734375 -0.921875 L 8.421875 -0.921875 L 8.421875 0 L 1.65625 0 Z M 1.65625 -10.15625 "/></g></g></g><g fill="#000000" fill-opacity="1"><g transform="translate(103.594932, 185.529194)"><g><path d="M 8.84375 -0.921875 L 8.84375 0 L 1.65625 0 L 1.65625 -10.15625 L 8.625 -10.15625 L 8.625 -9.234375 L 2.734375 -9.234375 L 2.734375 -5.625 L 7.984375 -5.625 L 7.984375 -4.703125 L 2.734375 -4.703125 L 2.734375 -0.921875 Z M 8.84375 -0.921875 "/></g></g></g><g fill="#000000" fill-opacity="1"><g transform="translate(116.051615, 185.529194)"><g><path d="M 4.796875 -4.78125 L 2.734375 -2.671875 L 2.734375 0 L 1.65625 0 L 1.65625 -10.15625 L 2.734375 -10.15625 L 2.734375 -4.015625 L 8.6875 -10.15625 L 9.921875 -10.15625 L 5.53125 -5.5625 L 10.234375 0 L 8.953125 0 Z M 4.796875 -4.78125 "/></g></g></g><g fill="#000000" fill-opacity="1"><g transform="translate(129.117933, 185.529194)"><g><path d="M 4.453125 0.09375 C 3.703125 0.09375 2.976562 -0.0234375 2.28125 -0.265625 C 1.59375 -0.515625 1.0625 -0.835938 0.6875 -1.234375 L 1.109375 -2.0625 C 1.472656 -1.695312 1.957031 -1.398438 2.5625 -1.171875 C 3.175781 -0.941406 3.804688 -0.828125 4.453125 -0.828125 C 5.367188 -0.828125 6.050781 -0.992188 6.5 -1.328125 C 6.957031 -1.660156 7.1875 -2.09375 7.1875 -2.625 C 7.1875 -3.03125 7.0625 -3.351562 6.8125 -3.59375 C 6.5625 -3.84375 6.257812 -4.03125 5.90625 -4.15625 C 5.550781 -4.289062 5.050781 -4.4375 4.40625 -4.59375 C 3.644531 -4.78125 3.035156 -4.960938 2.578125 -5.140625 C 2.128906 -5.328125 1.738281 -5.601562 1.40625 -5.96875 C 1.082031 -6.332031 0.921875 -6.832031 0.921875 -7.46875 C 0.921875 -7.976562 1.054688 -8.441406 1.328125 -8.859375 C 1.597656 -9.285156 2.015625 -9.625 2.578125 -9.875 C 3.140625 -10.125 3.835938 -10.25 4.671875 -10.25 C 5.253906 -10.25 5.820312 -10.164062 6.375 -10 C 6.9375 -9.84375 7.421875 -9.625 7.828125 -9.34375 L 7.46875 -8.484375 C 7.039062 -8.765625 6.582031 -8.972656 6.09375 -9.109375 C 5.613281 -9.253906 5.140625 -9.328125 4.671875 -9.328125 C 3.785156 -9.328125 3.113281 -9.15625 2.65625 -8.8125 C 2.207031 -8.46875 1.984375 -8.023438 1.984375 -7.484375 C 1.984375 -7.078125 2.109375 -6.75 2.359375 -6.5 C 2.609375 -6.257812 2.914062 -6.070312 3.28125 -5.9375 C 3.65625 -5.8125 4.160156 -5.671875 4.796875 -5.515625 C 5.535156 -5.328125 6.132812 -5.144531 6.59375 -4.96875 C 7.050781 -4.789062 7.441406 -4.519531 7.765625 -4.15625 C 8.085938 -3.789062 8.25 -3.300781 8.25 -2.6875 C 8.25 -2.175781 8.109375 -1.707031 7.828125 -1.28125 C 7.554688 -0.863281 7.132812 -0.53125 6.5625 -0.28125 C 5.988281 -0.03125 5.285156 0.09375 4.453125 0.09375 Z M 4.453125 0.09375 "/></g></g></g><g fill="#000000" fill-opacity="1"><g transform="translate(140.790784, 185.529194)"><g><path d="M 8.03125 -2.71875 L 2.359375 -2.71875 L 1.140625 0 L 0.03125 0 L 4.671875 -10.15625 L 5.734375 -10.15625 L 10.375 0 L 9.25 0 Z M 7.640625 -3.578125 L 5.203125 -9.046875 L 2.765625 -3.578125 Z M 7.640625 -3.578125 "/></g></g></g><g fill="#000000" fill-opacity="1"><g transform="translate(153.9442, 185.529194)"><g><path d="M 10.140625 -10.15625 L 10.140625 0 L 9.265625 0 L 2.734375 -8.25 L 2.734375 0 L 1.65625 0 L 1.65625 -10.15625 L 2.546875 -10.15625 L 9.09375 -1.921875 L 9.09375 -10.15625 Z M 10.140625 -10.15625 "/></g></g></g><g fill="#000000" fill-opacity="1"><g transform="translate(168.49108, 185.529194)"><g><path d="M 1.65625 -10.15625 L 5.796875 -10.15625 C 6.867188 -10.15625 7.816406 -9.941406 8.640625 -9.515625 C 9.460938 -9.085938 10.097656 -8.488281 10.546875 -7.71875 C 11.003906 -6.945312 11.234375 -6.066406 11.234375 -5.078125 C 11.234375 -4.085938 11.003906 -3.207031 10.546875 -2.4375 C 10.097656 -1.675781 9.460938 -1.078125 8.640625 -0.640625 C 7.816406 -0.210938 6.867188 0 5.796875 0 L 1.65625 0 Z M 5.734375 -0.921875 C 6.617188 -0.921875 7.394531 -1.097656 8.0625 -1.453125 C 8.738281 -1.804688 9.257812 -2.296875 9.625 -2.921875 C 9.988281 -3.546875 10.171875 -4.265625 10.171875 -5.078125 C 10.171875 -5.890625 9.988281 -6.609375 9.625 -7.234375 C 9.257812 -7.859375 8.738281 -8.347656 8.0625 -8.703125 C 7.394531 -9.054688 6.617188 -9.234375 5.734375 -9.234375 L 2.734375 -9.234375 L 2.734375 -0.921875 Z M 5.734375 -0.921875 "/></g></g></g><g fill="#000000" fill-opacity="1"><g transform="translate(183.226659, 185.529194)"><g><path d="M 8.59375 0 L 6.265625 -3.265625 C 6.003906 -3.234375 5.734375 -3.21875 5.453125 -3.21875 L 2.734375 -3.21875 L 2.734375 0 L 1.65625 0 L 1.65625 -10.15625 L 5.453125 -10.15625 C 6.753906 -10.15625 7.769531 -9.84375 8.5 -9.21875 C 9.238281 -8.601562 9.609375 -7.753906 9.609375 -6.671875 C 9.609375 -5.878906 9.40625 -5.207031 9 -4.65625 C 8.601562 -4.113281 8.03125 -3.722656 7.28125 -3.484375 L 9.765625 0 Z M 5.421875 -4.140625 C 6.429688 -4.140625 7.203125 -4.359375 7.734375 -4.796875 C 8.265625 -5.242188 8.53125 -5.867188 8.53125 -6.671875 C 8.53125 -7.492188 8.265625 -8.125 7.734375 -8.5625 C 7.203125 -9.007812 6.429688 -9.234375 5.421875 -9.234375 L 2.734375 -9.234375 L 2.734375 -4.140625 Z M 5.421875 -4.140625 "/></g></g></g><g fill="#000000" fill-opacity="1"><g transform="translate(196.467173, 185.529194)"><g><path d="M 8.03125 -2.71875 L 2.359375 -2.71875 L 1.140625 0 L 0.03125 0 L 4.671875 -10.15625 L 5.734375 -10.15625 L 10.375 0 L 9.25 0 Z M 7.640625 -3.578125 L 5.203125 -9.046875 L 2.765625 -3.578125 Z M 7.640625 -3.578125 "/></g></g></g><g fill="#000000" fill-opacity="1"><g transform="translate(209.620583, 185.529194)"><g/></g></g><g fill="#000000" fill-opacity="1"><g transform="translate(216.169531, 185.529194)"><g><path d="M 8.8125 -5.078125 L 9.84375 -5.078125 L 9.84375 -1.203125 C 9.363281 -0.785156 8.800781 -0.460938 8.15625 -0.234375 C 7.507812 -0.015625 6.828125 0.09375 6.109375 0.09375 C 5.097656 0.09375 4.179688 -0.128906 3.359375 -0.578125 C 2.546875 -1.023438 1.90625 -1.640625 1.4375 -2.421875 C 0.976562 -3.210938 0.75 -4.097656 0.75 -5.078125 C 0.75 -6.054688 0.976562 -6.9375 1.4375 -7.71875 C 1.90625 -8.507812 2.546875 -9.128906 3.359375 -9.578125 C 4.179688 -10.023438 5.101562 -10.25 6.125 -10.25 C 6.894531 -10.25 7.601562 -10.125 8.25 -9.875 C 8.90625 -9.625 9.457031 -9.257812 9.90625 -8.78125 L 9.234375 -8.09375 C 8.429688 -8.894531 7.410156 -9.296875 6.171875 -9.296875 C 5.347656 -9.296875 4.601562 -9.113281 3.9375 -8.75 C 3.28125 -8.382812 2.757812 -7.878906 2.375 -7.234375 C 2 -6.585938 1.8125 -5.867188 1.8125 -5.078125 C 1.8125 -4.285156 2 -3.566406 2.375 -2.921875 C 2.757812 -2.285156 3.28125 -1.785156 3.9375 -1.421875 C 4.59375 -1.054688 5.332031 -0.875 6.15625 -0.875 C 7.195312 -0.875 8.082031 -1.132812 8.8125 -1.65625 Z M 8.8125 -5.078125 "/></g></g></g><g fill="#000000" fill-opacity="1"><g transform="translate(230.135803, 185.529194)"><g><path d="M 8.59375 0 L 6.265625 -3.265625 C 6.003906 -3.234375 5.734375 -3.21875 5.453125 -3.21875 L 2.734375 -3.21875 L 2.734375 0 L 1.65625 0 L 1.65625 -10.15625 L 5.453125 -10.15625 C 6.753906 -10.15625 7.769531 -9.84375 8.5 -9.21875 C 9.238281 -8.601562 9.609375 -7.753906 9.609375 -6.671875 C 9.609375 -5.878906 9.40625 -5.207031 9 -4.65625 C 8.601562 -4.113281 8.03125 -3.722656 7.28125 -3.484375 L 9.765625 0 Z M 5.421875 -4.140625 C 6.429688 -4.140625 7.203125 -4.359375 7.734375 -4.796875 C 8.265625 -5.242188 8.53125 -5.867188 8.53125 -6.671875 C 8.53125 -7.492188 8.265625 -8.125 7.734375 -8.5625 C 7.203125 -9.007812 6.429688 -9.234375 5.421875 -9.234375 L 2.734375 -9.234375 L 2.734375 -4.140625 Z M 5.421875 -4.140625 "/></g></g></g><g fill="#000000" fill-opacity="1"><g transform="translate(243.37631, 185.529194)"><g><path d="M 5.75 0.09375 C 4.4375 0.09375 3.410156 -0.28125 2.671875 -1.03125 C 1.929688 -1.789062 1.5625 -2.894531 1.5625 -4.34375 L 1.5625 -10.15625 L 2.640625 -10.15625 L 2.640625 -4.390625 C 2.640625 -3.203125 2.90625 -2.316406 3.4375 -1.734375 C 3.96875 -1.160156 4.738281 -0.875 5.75 -0.875 C 6.757812 -0.875 7.53125 -1.160156 8.0625 -1.734375 C 8.601562 -2.316406 8.875 -3.203125 8.875 -4.390625 L 8.875 -10.15625 L 9.921875 -10.15625 L 9.921875 -4.34375 C 9.921875 -2.894531 9.550781 -1.789062 8.8125 -1.03125 C 8.082031 -0.28125 7.0625 0.09375 5.75 0.09375 Z M 5.75 0.09375 "/></g></g></g><g fill="#000000" fill-opacity="1"><g transform="translate(257.618367, 185.529194)"><g><path d="M 8.0625 -5.234375 C 8.726562 -5.085938 9.238281 -4.800781 9.59375 -4.375 C 9.957031 -3.945312 10.140625 -3.394531 10.140625 -2.71875 C 10.140625 -1.84375 9.816406 -1.171875 9.171875 -0.703125 C 8.535156 -0.234375 7.585938 0 6.328125 0 L 1.65625 0 L 1.65625 -10.15625 L 6.03125 -10.15625 C 7.164062 -10.15625 8.046875 -9.925781 8.671875 -9.46875 C 9.296875 -9.019531 9.609375 -8.378906 9.609375 -7.546875 C 9.609375 -6.984375 9.46875 -6.503906 9.1875 -6.109375 C 8.914062 -5.722656 8.539062 -5.429688 8.0625 -5.234375 Z M 2.734375 -9.28125 L 2.734375 -5.59375 L 5.96875 -5.59375 C 6.789062 -5.59375 7.421875 -5.75 7.859375 -6.0625 C 8.304688 -6.375 8.53125 -6.832031 8.53125 -7.4375 C 8.53125 -8.03125 8.304688 -8.484375 7.859375 -8.796875 C 7.421875 -9.117188 6.789062 -9.28125 5.96875 -9.28125 Z M 6.3125 -0.890625 C 7.21875 -0.890625 7.90625 -1.039062 8.375 -1.34375 C 8.84375 -1.65625 9.078125 -2.140625 9.078125 -2.796875 C 9.078125 -4.066406 8.15625 -4.703125 6.3125 -4.703125 L 2.734375 -4.703125 L 2.734375 -0.890625 Z M 6.3125 -0.890625 "/></g></g></g><g fill="#000000" fill-opacity="1"><g transform="translate(271.308841, 185.529194)"><g><path d="M 6.09375 0.09375 C 5.09375 0.09375 4.179688 -0.128906 3.359375 -0.578125 C 2.546875 -1.035156 1.90625 -1.65625 1.4375 -2.4375 C 0.976562 -3.21875 0.75 -4.097656 0.75 -5.078125 C 0.75 -6.054688 0.976562 -6.9375 1.4375 -7.71875 C 1.90625 -8.5 2.546875 -9.113281 3.359375 -9.5625 C 4.179688 -10.019531 5.09375 -10.25 6.09375 -10.25 C 7.101562 -10.25 8.007812 -10.023438 8.8125 -9.578125 C 9.625 -9.128906 10.257812 -8.507812 10.71875 -7.71875 C 11.1875 -6.9375 11.421875 -6.054688 11.421875 -5.078125 C 11.421875 -4.097656 11.1875 -3.210938 10.71875 -2.421875 C 10.257812 -1.640625 9.625 -1.023438 8.8125 -0.578125 C 8.007812 -0.128906 7.101562 0.09375 6.09375 0.09375 Z M 6.09375 -0.875 C 6.894531 -0.875 7.617188 -1.050781 8.265625 -1.40625 C 8.921875 -1.769531 9.429688 -2.273438 9.796875 -2.921875 C 10.160156 -3.566406 10.34375 -4.285156 10.34375 -5.078125 C 10.34375 -5.867188 10.160156 -6.585938 9.796875 -7.234375 C 9.429688 -7.878906 8.921875 -8.382812 8.265625 -8.75 C 7.617188 -9.113281 6.894531 -9.296875 6.09375 -9.296875 C 5.289062 -9.296875 4.5625 -9.113281 3.90625 -8.75 C 3.257812 -8.382812 2.75 -7.878906 2.375 -7.234375 C 2 -6.585938 1.8125 -5.867188 1.8125 -5.078125 C 1.8125 -4.285156 2 -3.566406 2.375 -2.921875 C 2.75 -2.273438 3.257812 -1.769531 3.90625 -1.40625 C 4.5625 -1.050781 5.289062 -0.875 6.09375 -0.875 Z M 6.09375 -0.875 "/></g></g></g><g fill="#000000" fill-opacity="1"><g transform="translate(286.233113, 185.529194)"><g><path d="M 8.59375 0 L 6.265625 -3.265625 C 6.003906 -3.234375 5.734375 -3.21875 5.453125 -3.21875 L 2.734375 -3.21875 L 2.734375 0 L 1.65625 0 L 1.65625 -10.15625 L 5.453125 -10.15625 C 6.753906 -10.15625 7.769531 -9.84375 8.5 -9.21875 C 9.238281 -8.601562 9.609375 -7.753906 9.609375 -6.671875 C 9.609375 -5.878906 9.40625 -5.207031 9 -4.65625 C 8.601562 -4.113281 8.03125 -3.722656 7.28125 -3.484375 L 9.765625 0 Z M 5.421875 -4.140625 C 6.429688 -4.140625 7.203125 -4.359375 7.734375 -4.796875 C 8.265625 -5.242188 8.53125 -5.867188 8.53125 -6.671875 C 8.53125 -7.492188 8.265625 -8.125 7.734375 -8.5625 C 7.203125 -9.007812 6.429688 -9.234375 5.421875 -9.234375 L 2.734375 -9.234375 L 2.734375 -4.140625 Z M 5.421875 -4.140625 "/></g></g></g><g fill="#000000" fill-opacity="1"><g transform="translate(299.464326, 185.529194)"><g/></g></g></svg>